<?xml version="1.0" encoding="UTF-8"?><svg id="Layer_1" xmlns="http://www.w3.org/2000/svg" viewBox="0 0 1010.89 790.28"><defs><style>.cls-1{stroke-width:4px;}.cls-1,.cls-2{fill:none;stroke:#000;stroke-miterlimit:10;}.cls-3{fill:#fff;stroke-width:0px;}</style></defs><path class="cls-1" d="M579.03,212.07c2.35,3.26,4.87,5.69,7.58,7.28,2.7,1.59,6.28,3.06,10.74,4.41,4.46,1.35,8.62,1.72,12.47,1.1,3.85-.61,6.62-1.56,8.31-2.86,1.68-1.29,2.98-3.04,3.9-5.22.91-2.19,1.45-3.82,1.62-4.89.16-1.07-.38-2.16-1.64-3.26-1.26-1.09-2.15-2.92-2.67-5.49h-.02c-.53-2.55-.81-4.95-.84-7.19-.04-2.24.4-4.51,1.31-6.82.91-2.3,1.58-4.59,2.02-6.86.43-2.27.22-4.56-.64-6.87-.86-2.3-2.11-4.16-3.74-5.59-1.63-1.42-3.97-2.8-7.01-4.13-3.05-1.32-6.39-1.87-10.03-1.62-3.65.25-7.07,1.07-10.28,2.46-3.21,1.4-5.97,3.36-8.28,5.87-2.31,2.52-4.17,5.59-5.57,9.23-1.41,3.64-2.29,7.24-2.63,10.8-.35,3.57-.13,6.91.68,10.05.8,3.13,2.37,6.34,4.72,9.6Z"/><path class="cls-1" d="M991.11,130.95c-3.62-1.17-7.8-1.89-12.54-2.16-4.75-.27-10.17-.2-16.28.21-27.03,1.83-50.45,10.02-70.24,24.58h.02c-8.99,6.75-13.27,13.17-12.86,19.28.57,8.47,6.26,12.33,17.07,11.6,1.41-.1,2.86-.31,4.38-.65,1.51-.33,3.06-.91,4.66-1.73,10.69-9.46,20.07-15.64,28.14-18.55,8.5-3.41,17.33-5.6,26.47-6.57,9.14-.97,17.82-1.85,26.03-2.64,15.7-1.77,23.34-5.82,22.91-12.17-.31-4.47-6.22-8.2-17.76-11.2Z"/><path class="cls-1" d="M706.91,50.07c2.35,3.27,4.87,5.69,7.57,7.28,2.7,1.59,6.28,3.06,10.75,4.41,4.46,1.35,8.62,1.72,12.47,1.1,3.85-.61,6.62-1.56,8.31-2.86,1.68-1.29,2.98-3.04,3.9-5.22.92-2.19,1.45-3.82,1.62-4.89.16-1.07-.38-2.16-1.64-3.25-1.26-1.09-2.14-2.92-2.67-5.49v.02c-.54-2.56-.82-4.96-.85-7.21-.03-2.24.4-4.51,1.31-6.82.91-2.3,1.58-4.59,2.02-6.86.43-2.27.22-4.56-.64-6.87-.86-2.3-2.11-4.16-3.74-5.59-1.63-1.42-3.97-2.8-7.01-4.13-3.04-1.33-6.39-1.87-10.03-1.63-3.65.25-7.07,1.07-10.28,2.46-3.22,1.4-5.97,3.36-8.28,5.87-2.31,2.52-4.17,5.59-5.58,9.23-1.41,3.64-2.29,7.24-2.63,10.8-.35,3.57-.13,6.91.68,10.05.8,3.13,2.38,6.34,4.72,9.6Z"/><path class="cls-1" d="M128.54,296.13c2.35,3.38,4.94,5.86,7.76,7.45,2.82,1.58,6.46,3.05,10.92,4.4,4.46,1.35,8.67,1.72,12.65,1.09,3.97-.62,6.8-1.58,8.48-2.87,1.68-1.29,2.98-3.04,3.9-5.22.91-2.19,1.45-3.87,1.6-5.07.15-1.19-.39-2.33-1.65-3.43-1.26-1.09-2.15-2.92-2.67-5.49h0c-.53-2.56-.81-4.96-.84-7.2-.04-2.24.4-4.57,1.3-6.99.9-2.42,1.57-4.77,2-7.04s.22-4.56-.64-6.86-2.11-4.16-3.74-5.59c-1.63-1.42-4.03-2.79-7.18-4.12-3.16-1.32-6.56-1.86-10.2-1.61-3.65.25-7.07,1.07-10.28,2.46-3.21,1.4-6.03,3.36-8.46,5.88-2.43,2.53-4.35,5.61-5.75,9.24-1.41,3.64-2.29,7.3-2.62,10.98-.34,3.69-.11,7.09.69,10.22.8,3.13,2.38,6.39,4.73,9.77Z"/><path class="cls-1" d="M414.24,441.53h0c44.32-4.63,72.18-32,83.57-83.54,3.7-22.21-.19-37.89-11.67-47.03-19.19-4.37-27.67,4.59-25.46,26.87,4.2,48.36-11.98,72.71-48.55,73.05h0c-5.15.57-12.52-.65-22.16-3.66-9.65-3.01-17.18-7.99-22.61-14.94s-12.72-10.12-21.89-9.5h-.01c-4.47.31-30.5,13.34-78.11,39.1-47.62,25.76-96.39,56.91-146.34,93.46-49.95,36.54-84.94,72.5-104.99,107.85-14.7,34.04-17.84,64.47-9.42,91.3l8.58,22.09c21.51,35.38,39.2,52.61,53.07,51.67,3.3.01,4.15-1.46,2.53-4.42-16.17-29.6-24.84-53.1-26.01-70.49-13.1-40.2,2.45-80.98,46.64-122.33s93.21-78.54,147.06-111.57c53.85-33.03,87.2-50.46,100.07-52.27,3.41-1.88,10.45-.05,21.09,5.48,10.64,5.53,21.23,8.48,31.76,8.83,10.53.35,18.15.37,22.85.05Z"/><path class="cls-1" d="M964.5,277.25c-15.74-2.24-24.22,6.72-25.46,26.87.71,45.52-15.47,69.88-48.55,73.05l.04.61c-17.2-1.8-31.36-10.37-42.47-25.73l-4-6.81c12.23-14.75,20.87-30.09,25.94-46.02,9.45-31.33,5.31-54.19-12.42-68.58-15.5-5.8-35-4.37-58.5,4.3l-21.64,9.96h0c-18.05,9.01-35.22,20.44-51.52,34.29-28.64,26.96-42.24,49.37-40.8,67.21.2,6.6,1.1,12.03,2.69,16.29,1.58,4.26,3,7.83,4.26,10.69,1.26,2.87,3.47,6.79,6.64,11.77l-9.71,3.14c-7.51,2.54-16.09,3.95-25.69,4.25-9.43.21-19.21,1.14-26.61,2.64-7.93,1.6-14.62,5.65-20.08,12.16h0c-9.24,10.07-17.56,25.09-24.94,45.07-7.39,19.98-17.77,35.79-31.15,47.44-13.38,11.64-29.6,26.61-48.68,44.9-24.45,25.97-19.36,34.96,15.28,26.95,49.16-27.41,78.54-52,88.17-73.78,9.63-21.78,17.1-39.58,22.43-53.4,5.32-13.82,15.73-17.95,28.73-20.39h0c13.67-1.22,28.35-3.01,44.07-5.42l20.59-4.58,13.84-4.83c45.02,19.86,59.4,14.17,43.12-17.08l30.52-20.12c19.43,18.52,34.69,29.53,45.79,33.03,11.09,3.5,21.44,4.69,31.05,3.57l-.03-.49c42.68-5.52,69.61-33.49,80.75-83.93,3.74-25.05-.15-40.73-11.67-47.03ZM832.52,305.28c-29.17,36.68-54.7,57.3-76.58,61.84l-6.35.43c-15.63-4.14-23.96-13.97-25.01-29.48h0c-.52-7.76,9.95-20.51,31.42-38.25,28.32-24.58,53.89-37.64,76.69-39.18l3.93.45,3.81,3.99c1.18,17.39-1.46,30.79-7.91,40.2Z"/><path class="cls-1" d="M510.14,540.61c-.3-4.47-5.86-8.11-16.67-10.92-3.39-1.18-7.34-1.93-11.84-2.21-4.51-.28-9.7-.23-15.57.17-25.38,1.72-47.39,9.69-66.03,23.94h0c-8.54,6.47-12.61,12.65-12.21,18.53.55,8.22,5.38,13.32,14.49,15.31,1.18-.08,2.76-.3,4.74-.67,1.98-.37,3.78-.96,5.37-1.78,10-9.17,18.8-15.2,26.4-18.07,8.05-3.14,16.42-5.18,25.09-6.12s16.88-1.8,24.62-2.55c14.81-4.31,22.02-9.52,21.61-15.63Z"/><path class="cls-3" d="M579.03,212.07c2.35,3.26,4.87,5.69,7.58,7.28,2.7,1.59,6.28,3.06,10.74,4.41,4.46,1.35,8.62,1.72,12.47,1.1,3.85-.61,6.62-1.56,8.31-2.86,1.68-1.29,2.98-3.04,3.9-5.22.91-2.19,1.45-3.82,1.62-4.89.16-1.07-.38-2.16-1.64-3.26-1.26-1.09-2.15-2.92-2.67-5.49h-.02c-.53-2.55-.81-4.95-.84-7.19-.04-2.24.4-4.51,1.31-6.82.91-2.3,1.58-4.59,2.02-6.86.43-2.27.22-4.56-.64-6.87-.86-2.3-2.11-4.16-3.74-5.59-1.63-1.42-3.97-2.8-7.01-4.13-3.05-1.32-6.39-1.87-10.03-1.62-3.65.25-7.07,1.07-10.28,2.46-3.21,1.4-5.97,3.36-8.28,5.87-2.31,2.52-4.17,5.59-5.57,9.23-1.41,3.64-2.29,7.24-2.63,10.8-.35,3.57-.13,6.91.68,10.05.8,3.13,2.37,6.34,4.72,9.6Z"/><path class="cls-3" d="M706.91,50.07c2.35,3.27,4.87,5.69,7.57,7.28,2.7,1.59,6.28,3.06,10.75,4.41,4.46,1.35,8.62,1.72,12.47,1.1,3.85-.61,6.62-1.56,8.31-2.86,1.68-1.29,2.98-3.04,3.9-5.22.92-2.19,1.45-3.82,1.62-4.89.16-1.07-.38-2.16-1.64-3.25-1.26-1.09-2.14-2.92-2.67-5.49v.02c-.54-2.56-.82-4.96-.85-7.21-.03-2.24.4-4.51,1.31-6.82.91-2.3,1.58-4.59,2.02-6.86.43-2.27.22-4.56-.64-6.87-.86-2.3-2.11-4.16-3.74-5.59-1.63-1.42-3.97-2.8-7.01-4.13-3.04-1.33-6.39-1.87-10.03-1.63-3.65.25-7.07,1.07-10.28,2.46-3.22,1.4-5.97,3.36-8.28,5.87-2.31,2.52-4.17,5.59-5.58,9.23-1.41,3.64-2.29,7.24-2.63,10.8-.35,3.57-.13,6.91.68,10.05.8,3.13,2.38,6.34,4.72,9.6Z"/><path class="cls-3" d="M128.54,296.13c2.35,3.38,4.94,5.86,7.76,7.45,2.82,1.58,6.46,3.05,10.92,4.4,4.46,1.35,8.67,1.72,12.65,1.09,3.97-.62,6.8-1.58,8.48-2.87,1.68-1.29,2.98-3.04,3.9-5.22.91-2.19,1.45-3.87,1.6-5.07.15-1.19-.39-2.33-1.65-3.43-1.26-1.09-2.15-2.92-2.67-5.49h0c-.53-2.56-.81-4.96-.84-7.2-.04-2.24.4-4.57,1.3-6.99.9-2.42,1.57-4.77,2-7.04s.22-4.56-.64-6.86-2.11-4.16-3.74-5.59c-1.63-1.42-4.03-2.79-7.18-4.12-3.16-1.32-6.56-1.86-10.2-1.61-3.65.25-7.07,1.07-10.28,2.46-3.21,1.4-6.03,3.36-8.46,5.88-2.43,2.53-4.35,5.61-5.75,9.24-1.41,3.64-2.29,7.3-2.62,10.98-.34,3.69-.11,7.09.69,10.22.8,3.13,2.38,6.39,4.73,9.77Z"/><path class="cls-3" d="M991.11,130.95c-3.62-1.17-7.8-1.89-12.54-2.16-4.75-.27-10.17-.2-16.28.21-27.03,1.83-50.45,10.02-70.24,24.58h.02c-8.99,6.75-13.27,13.17-12.86,19.28.57,8.47,6.26,12.33,17.07,11.6,1.41-.1,2.86-.31,4.38-.65,1.51-.33,3.06-.91,4.66-1.73,10.69-9.46,20.07-15.64,28.14-18.55,8.5-3.41,17.33-5.6,26.47-6.57,9.14-.97,17.82-1.85,26.03-2.64,15.7-1.77,23.34-5.82,22.91-12.17-.31-4.47-6.22-8.2-17.76-11.2Z"/><path class="cls-3" d="M414.24,441.53h0c44.32-4.63,72.18-32,83.57-83.54,3.7-22.21-.19-37.89-11.67-47.03-19.19-4.37-27.67,4.59-25.46,26.87,4.2,48.36-11.98,72.71-48.55,73.05h0c-5.15.57-12.52-.65-22.16-3.66-9.65-3.01-17.18-7.99-22.61-14.94s-12.72-10.12-21.89-9.5h-.01c-4.47.31-30.5,13.34-78.11,39.1-47.62,25.76-96.39,56.91-146.34,93.46-49.95,36.54-84.94,72.5-104.99,107.85-14.7,34.04-17.84,64.47-9.42,91.3l8.58,22.09c21.51,35.38,39.2,52.61,53.07,51.67,3.3.01,4.15-1.46,2.53-4.42-16.17-29.6-24.84-53.1-26.01-70.49-13.1-40.2,2.45-80.98,46.64-122.33s93.21-78.54,147.06-111.57c53.85-33.03,87.2-50.46,100.07-52.27,3.41-1.88,10.45-.05,21.09,5.48,10.64,5.53,21.23,8.48,31.76,8.83,10.53.35,18.15.37,22.85.05Z"/><path class="cls-3" d="M964.5,277.25c-15.74-2.24-24.22,6.72-25.46,26.87.71,45.52-15.47,69.88-48.55,73.05l.04.61c-17.2-1.8-31.36-10.37-42.47-25.73l-4-6.81c12.23-14.75,20.87-30.09,25.94-46.02,9.45-31.33,5.31-54.19-12.42-68.58-15.5-5.8-35-4.37-58.5,4.3l-21.64,9.96h0c-18.05,9.01-35.22,20.44-51.52,34.29-28.64,26.96-42.24,49.37-40.8,67.21.2,6.6,1.1,12.03,2.69,16.29,1.58,4.26,3,7.83,4.26,10.69,1.26,2.87,3.47,6.79,6.64,11.77l-9.71,3.14c-7.51,2.54-16.09,3.95-25.69,4.25-9.43.21-19.21,1.14-26.61,2.64-7.93,1.6-14.62,5.65-20.08,12.16h0c-9.24,10.07-17.56,25.09-24.94,45.07-7.39,19.98-17.77,35.79-31.15,47.44-13.38,11.64-29.6,26.61-48.68,44.9-24.45,25.97-19.36,34.96,15.28,26.95,49.16-27.41,78.54-52,88.17-73.78,9.63-21.78,17.1-39.58,22.43-53.4,5.32-13.82,15.73-17.95,28.73-20.39h0c13.67-1.22,28.35-3.01,44.07-5.42l20.59-4.58,13.84-4.83c45.02,19.86,59.4,14.17,43.12-17.08l30.52-20.12c19.43,18.52,34.69,29.53,45.79,33.03,11.09,3.5,21.44,4.69,31.05,3.57l-.03-.49c42.68-5.52,69.61-33.49,80.75-83.93,3.74-25.05-.15-40.73-11.67-47.03ZM832.52,305.28c-29.17,36.68-54.7,57.3-76.58,61.84l-6.35.43c-15.63-4.14-23.96-13.97-25.01-29.48h0c-.52-7.76,9.95-20.51,31.42-38.25,28.32-24.58,53.89-37.64,76.69-39.18l3.93.45,3.81,3.99c1.18,17.39-1.46,30.79-7.91,40.2Z"/><path class="cls-3" d="M510.14,540.61c-.3-4.47-5.86-8.11-16.67-10.92-3.39-1.18-7.34-1.93-11.84-2.21-4.51-.28-9.7-.23-15.57.17-25.38,1.72-47.39,9.69-66.03,23.94h0c-8.54,6.47-12.61,12.65-12.21,18.53.55,8.22,5.38,13.32,14.49,15.31,1.18-.08,2.76-.3,4.74-.67,1.98-.37,3.78-.96,5.37-1.78,10-9.17,18.8-15.2,26.4-18.07,8.05-3.14,16.42-5.18,25.09-6.12s16.88-1.8,24.62-2.55c14.81-4.31,22.02-9.52,21.61-15.63Z"/><path class="cls-2" d="M579.03,212.07c2.35,3.26,4.87,5.69,7.58,7.28,2.7,1.59,6.28,3.06,10.74,4.41,4.46,1.35,8.62,1.72,12.47,1.1,3.85-.61,6.62-1.56,8.31-2.86,1.68-1.29,2.98-3.04,3.9-5.22.91-2.19,1.45-3.82,1.62-4.89.16-1.07-.38-2.16-1.64-3.26-1.26-1.09-2.15-2.92-2.67-5.49h-.02c-.53-2.55-.81-4.95-.84-7.19-.04-2.24.4-4.51,1.31-6.82.91-2.3,1.58-4.59,2.02-6.86.43-2.27.22-4.56-.64-6.87-.86-2.3-2.11-4.16-3.74-5.59-1.63-1.42-3.97-2.8-7.01-4.13-3.05-1.32-6.39-1.87-10.03-1.62-3.65.25-7.07,1.07-10.28,2.46-3.21,1.4-5.97,3.36-8.28,5.87-2.31,2.52-4.17,5.59-5.57,9.23-1.41,3.64-2.29,7.24-2.63,10.8-.35,3.57-.13,6.91.68,10.05.8,3.13,2.37,6.34,4.72,9.6Z"/><path class="cls-2" d="M706.91,50.07c2.35,3.27,4.87,5.69,7.57,7.28,2.7,1.59,6.28,3.06,10.75,4.41,4.46,1.35,8.62,1.72,12.47,1.1,3.85-.61,6.62-1.56,8.31-2.86,1.68-1.29,2.98-3.04,3.9-5.22.92-2.19,1.45-3.82,1.62-4.89.16-1.07-.38-2.16-1.64-3.25-1.26-1.09-2.14-2.92-2.67-5.49v.02c-.54-2.56-.82-4.96-.85-7.21-.03-2.24.4-4.51,1.31-6.82.91-2.3,1.58-4.59,2.02-6.86.43-2.27.22-4.56-.64-6.87-.86-2.3-2.11-4.16-3.74-5.59-1.63-1.42-3.97-2.8-7.01-4.13-3.04-1.33-6.39-1.87-10.03-1.63-3.65.25-7.07,1.07-10.28,2.46-3.22,1.4-5.97,3.36-8.28,5.87-2.31,2.52-4.17,5.59-5.58,9.23-1.41,3.64-2.29,7.24-2.63,10.8-.35,3.57-.13,6.91.68,10.05.8,3.13,2.38,6.34,4.72,9.6Z"/><path class="cls-2" d="M128.54,296.13c2.35,3.38,4.94,5.86,7.76,7.45,2.82,1.58,6.46,3.05,10.92,4.4,4.46,1.35,8.67,1.72,12.65,1.09,3.97-.62,6.8-1.58,8.48-2.87,1.68-1.29,2.98-3.04,3.9-5.22.91-2.19,1.45-3.87,1.6-5.07.15-1.19-.39-2.33-1.65-3.43-1.26-1.09-2.15-2.92-2.67-5.49h0c-.53-2.56-.81-4.96-.84-7.2-.04-2.24.4-4.57,1.3-6.99.9-2.42,1.57-4.77,2-7.04s.22-4.56-.64-6.86-2.11-4.16-3.74-5.59c-1.63-1.42-4.03-2.79-7.18-4.12-3.16-1.32-6.56-1.86-10.2-1.61-3.65.25-7.07,1.07-10.28,2.46-3.21,1.4-6.03,3.36-8.46,5.88-2.43,2.53-4.35,5.61-5.75,9.24-1.41,3.64-2.29,7.3-2.62,10.98-.34,3.69-.11,7.09.69,10.22.8,3.13,2.38,6.39,4.73,9.77Z"/><path class="cls-2" d="M991.11,130.95c-3.62-1.17-7.8-1.89-12.54-2.16-4.75-.27-10.17-.2-16.28.21-27.03,1.83-50.45,10.02-70.24,24.58h.02c-8.99,6.75-13.27,13.17-12.86,19.28.57,8.47,6.26,12.33,17.07,11.6,1.41-.1,2.86-.31,4.38-.65,1.51-.33,3.06-.91,4.66-1.73,10.69-9.46,20.07-15.64,28.14-18.55,8.5-3.41,17.33-5.6,26.47-6.57,9.14-.97,17.82-1.85,26.03-2.64,15.7-1.77,23.34-5.82,22.91-12.17-.31-4.47-6.22-8.2-17.76-11.2Z"/><path class="cls-2" d="M414.24,441.53h0c44.32-4.63,72.18-32,83.57-83.54,3.7-22.21-.19-37.89-11.67-47.03-19.19-4.37-27.67,4.59-25.46,26.87,4.2,48.36-11.98,72.71-48.55,73.05h0c-5.15.57-12.52-.65-22.16-3.66-9.65-3.01-17.18-7.99-22.61-14.94s-12.72-10.12-21.89-9.5h-.01c-4.47.31-30.5,13.34-78.11,39.1-47.62,25.76-96.39,56.91-146.34,93.46-49.95,36.54-84.94,72.5-104.99,107.85-14.7,34.04-17.84,64.47-9.42,91.3l8.58,22.09c21.51,35.38,39.2,52.61,53.07,51.67,3.3.01,4.15-1.46,2.53-4.42-16.17-29.6-24.84-53.1-26.01-70.49-13.1-40.2,2.45-80.98,46.64-122.33s93.21-78.54,147.06-111.57c53.85-33.03,87.2-50.46,100.07-52.27,3.41-1.88,10.45-.05,21.09,5.48,10.64,5.53,21.23,8.48,31.76,8.83,10.53.35,18.15.37,22.85.05Z"/><path class="cls-2" d="M964.5,277.25c-15.74-2.24-24.22,6.72-25.46,26.87.71,45.52-15.47,69.88-48.55,73.05l.04.61c-17.2-1.8-31.36-10.37-42.47-25.73l-4-6.81c12.23-14.75,20.87-30.09,25.94-46.02,9.45-31.33,5.31-54.19-12.42-68.58-15.5-5.8-35-4.37-58.5,4.3l-21.64,9.96h0c-18.05,9.01-35.22,20.44-51.52,34.29-28.64,26.96-42.24,49.37-40.8,67.21.2,6.6,1.1,12.03,2.69,16.29,1.58,4.26,3,7.83,4.26,10.69,1.26,2.87,3.47,6.79,6.64,11.77l-9.71,3.14c-7.51,2.54-16.09,3.95-25.69,4.25-9.43.21-19.21,1.14-26.61,2.64-7.93,1.6-14.62,5.65-20.08,12.16h0c-9.24,10.07-17.56,25.09-24.94,45.07-7.39,19.98-17.77,35.79-31.15,47.44-13.38,11.64-29.6,26.61-48.68,44.9-24.45,25.97-19.36,34.96,15.28,26.95,49.16-27.41,78.54-52,88.17-73.78,9.63-21.78,17.1-39.58,22.43-53.4,5.32-13.82,15.73-17.95,28.73-20.39h0c13.67-1.22,28.35-3.01,44.07-5.42l20.59-4.58,13.84-4.83c45.02,19.86,59.4,14.17,43.12-17.08l30.52-20.12c19.43,18.52,34.69,29.53,45.79,33.03,11.09,3.5,21.44,4.69,31.05,3.57l-.03-.49c42.68-5.52,69.61-33.49,80.75-83.93,3.74-25.05-.15-40.73-11.67-47.03ZM832.52,305.28c-29.17,36.68-54.7,57.3-76.58,61.84l-6.35.43c-15.63-4.14-23.96-13.97-25.01-29.48h0c-.52-7.76,9.95-20.51,31.42-38.25,28.32-24.58,53.89-37.64,76.69-39.18l3.93.45,3.81,3.99c1.18,17.39-1.46,30.79-7.91,40.2Z"/><path class="cls-2" d="M510.14,540.61c-.3-4.47-5.86-8.11-16.67-10.92-3.39-1.18-7.34-1.93-11.84-2.21-4.51-.28-9.7-.23-15.57.17-25.38,1.72-47.39,9.69-66.03,23.94h0c-8.54,6.47-12.61,12.65-12.21,18.53.55,8.22,5.38,13.32,14.49,15.31,1.18-.08,2.76-.3,4.74-.67,1.98-.37,3.78-.96,5.37-1.78,10-9.17,18.8-15.2,26.4-18.07,8.05-3.14,16.42-5.18,25.09-6.12s16.88-1.8,24.62-2.55c14.81-4.31,22.02-9.52,21.61-15.63Z"/></svg>