<?xml version="1.0" encoding="UTF-8"?><svg id="Layer_1" xmlns="http://www.w3.org/2000/svg" viewBox="0 0 1010.89 790.28"><defs><style>.cls-1{fill:none;stroke:#000;stroke-miterlimit:10;stroke-width:4px;}.cls-2{fill:#000;stroke-width:0px;}</style></defs><path class="cls-1" d="M345.47,382.78c9.17-.62,16.46,2.55,21.89,9.5s12.96,11.93,22.61,14.94c9.64,3.01,17.01,4.23,22.16,3.65l2.11,30.66c-4.7.32-12.32.3-22.85-.05-10.53-.35-21.12-3.3-31.76-8.83s-17.68-7.36-21.09-5.48c-12.87,1.81-46.22,19.24-100.07,52.27-53.85,33.03-102.87,70.22-147.06,111.57-44.19,41.35-59.74,82.13-46.64,122.33,1.17,17.39,9.84,40.89,26.01,70.49,1.62,2.96.77,4.43-2.53,4.42-13.87.94-31.56-16.29-53.07-51.67l-8.58-22.09c-8.42-26.83-5.28-57.26,9.42-91.3,20.05-35.35,55.04-71.31,104.99-107.85,49.95-36.55,98.72-67.7,146.34-93.46,47.61-25.76,73.64-38.79,78.11-39.1h.01ZM169.53,286.99c-.53-2.56-.81-4.96-.84-7.2-.04-2.24.4-4.57,1.3-6.99.9-2.42,1.57-4.77,2-7.04.43-2.27.22-4.56-.64-6.86s-2.11-4.16-3.74-5.59c-1.63-1.42-4.03-2.79-7.18-4.12-3.16-1.32-6.56-1.86-10.2-1.61-3.65.25-7.07,1.07-10.28,2.46-3.21,1.4-6.03,3.36-8.46,5.88-2.43,2.53-4.35,5.61-5.75,9.24-1.41,3.64-2.29,7.3-2.62,10.98-.34,3.69-.11,7.09.69,10.22s2.38,6.39,4.73,9.77c2.35,3.38,4.94,5.86,7.76,7.45,2.82,1.58,6.46,3.05,10.92,4.4,4.46,1.35,8.67,1.72,12.65,1.09,3.97-.62,6.8-1.58,8.48-2.87s2.98-3.04,3.9-5.22c.91-2.19,1.45-3.87,1.6-5.07.15-1.19-.39-2.33-1.65-3.43-1.26-1.09-2.15-2.92-2.67-5.49h0ZM400.03,551.59c18.64-14.25,40.65-22.22,66.03-23.94,5.87-.4,11.06-.45,15.57-.17,4.5.28,8.45,1.03,11.84,2.21,10.81,2.81,16.37,6.45,16.67,10.92.41,6.11-6.8,11.32-21.61,15.63-7.74.75-15.95,1.61-24.62,2.55-8.67.94-17.04,2.98-25.09,6.12-7.6,2.87-16.4,8.9-26.4,18.07-1.59.82-3.39,1.41-5.37,1.78-1.98.37-3.56.59-4.74.67-9.11-1.99-13.94-7.09-14.49-15.31-.4-5.88,3.67-12.06,12.21-18.53h0ZM486.14,310.96c11.48,9.14,15.37,24.82,11.67,47.03-11.39,51.54-39.25,78.91-83.57,83.55l-2.11-30.66c36.57-.34,52.75-24.69,48.55-73.05-2.21-22.28,6.27-31.24,25.46-26.87ZM616.63,407.34c5.46-6.51,12.15-10.56,20.08-12.16,7.92-1.6,18.57-2.56,28.59-2.67l1.17,31.62c-13,2.44-23.41,6.57-28.73,20.39-5.33,13.82-12.8,31.62-22.43,53.4s-39.01,46.37-88.17,73.78c-34.64,8.01-39.73-.98-15.28-26.95,19.08-18.29,35.3-33.26,48.68-44.9,13.38-11.65,23.76-27.46,31.15-47.44,7.38-19.98,15.7-35,24.94-45.07h0ZM619.32,203.15c-.53-2.56-.81-4.96-.84-7.2-.04-2.24.4-4.51,1.31-6.82.91-2.3,1.58-4.59,2.02-6.86.43-2.27.22-4.56-.64-6.87-.86-2.3-2.11-4.16-3.74-5.59-1.63-1.42-3.97-2.8-7.01-4.13-3.05-1.32-6.39-1.87-10.03-1.62-3.65.25-7.07,1.07-10.28,2.46-3.21,1.4-5.97,3.36-8.28,5.87-2.31,2.52-4.17,5.59-5.57,9.23-1.41,3.64-2.29,7.24-2.63,10.8-.35,3.57-.13,6.91.68,10.05.8,3.13,2.37,6.34,4.72,9.6,2.35,3.26,4.87,5.69,7.58,7.28,2.7,1.59,6.28,3.06,10.74,4.41,4.46,1.35,8.62,1.72,12.47,1.1,3.85-.61,6.62-1.56,8.31-2.86,1.68-1.29,2.98-3.04,3.9-5.22.91-2.19,1.45-3.82,1.62-4.89.16-1.07-.38-2.16-1.64-3.26-1.26-1.09-2.15-2.92-2.67-5.49h-.02ZM777.44,244.9l21.64-9.96c23.5-8.67,43-10.1,58.5-4.3,17.73,14.39,21.87,37.25,12.42,68.58-5.07,15.93-13.71,31.27-25.94,46.02l4,6.81c11.72,16.21,26.83,24.87,45.32,25.98l2.07,30.67c-9.61,1.12-19.96-.07-31.05-3.57-11.1-3.5-26.36-14.51-45.79-33.03l-30.52,20.12c16.28,31.25,1.9,36.94-43.12,17.08l-13.84,4.83-20.59,4.58c-16.6,2.54-32.05,4.41-46.37,5.61l-2.14-31.73c10.13-.21,19.13-1.65,26.98-4.3l9.71-3.14c-3.17-4.98-5.38-8.9-6.64-11.77-1.26-2.86-2.68-6.43-4.26-10.69-1.59-4.26-2.49-9.69-2.69-16.29-1.44-17.84,12.16-40.25,40.8-67.21,16.3-13.85,33.47-25.28,51.52-34.29h0ZM747.21,41.17c-.53-2.56-.81-4.96-.84-7.21-.03-2.24.4-4.51,1.31-6.82.91-2.3,1.58-4.59,2.02-6.86.43-2.27.22-4.56-.64-6.87-.86-2.3-2.11-4.16-3.74-5.59-1.63-1.42-3.97-2.8-7.01-4.13-3.04-1.33-6.39-1.87-10.03-1.63-3.65.25-7.07,1.07-10.28,2.46-3.22,1.4-5.97,3.36-8.28,5.87-2.31,2.52-4.17,5.59-5.58,9.23-1.41,3.64-2.29,7.24-2.63,10.8-.35,3.57-.13,6.91.68,10.05.8,3.13,2.38,6.34,4.72,9.6,2.35,3.27,4.87,5.69,7.57,7.28s6.28,3.06,10.75,4.41c4.46,1.35,8.62,1.72,12.47,1.1,3.85-.61,6.62-1.56,8.31-2.86,1.68-1.29,2.98-3.04,3.9-5.22.92-2.19,1.45-3.82,1.62-4.89.16-1.07-.38-2.16-1.64-3.25s-2.14-2.92-2.67-5.49v.02ZM724.58,338.07c1.05,15.51,9.38,25.34,25.01,29.48l6.35-.43c21.88-4.54,47.41-25.16,76.58-61.84,6.45-9.41,9.09-22.81,7.91-40.2l-3.81-3.99-3.93-.45c-22.8,1.54-48.37,14.6-76.69,39.18-21.47,17.74-31.94,30.49-31.42,38.24h0ZM964.5,277.25c11.52,6.3,15.41,21.98,11.67,47.03-11.39,51.54-39.25,79.63-83.56,84.27l-2.12-31.38c33.08-3.17,49.26-27.53,48.55-73.05,1.24-20.15,9.72-29.11,25.46-26.87ZM892.05,153.58c19.79-14.56,43.21-22.75,70.24-24.58,6.11-.41,11.53-.48,16.28-.21,4.74.27,8.92.99,12.54,2.16,11.54,3,17.45,6.73,17.76,11.2.43,6.35-7.21,10.4-22.91,12.17-8.21.79-16.89,1.67-26.03,2.64s-17.97,3.16-26.47,6.57c-8.07,2.91-17.45,9.09-28.14,18.55-1.6.82-3.15,1.4-4.66,1.73-1.52.34-2.97.55-4.38.65-10.81.73-16.5-3.13-17.07-11.6-.41-6.11,3.87-12.53,12.86-19.28h-.02Z"/><path class="cls-2" d="M345.47,382.78c9.17-.62,16.46,2.55,21.89,9.5s12.96,11.93,22.61,14.94c9.64,3.01,17.01,4.23,22.16,3.65l2.11,30.66c-4.7.32-12.32.3-22.85-.05-10.53-.35-21.12-3.3-31.76-8.83s-17.68-7.36-21.09-5.48c-12.87,1.81-46.22,19.24-100.07,52.27-53.85,33.03-102.87,70.22-147.06,111.57-44.19,41.35-59.74,82.13-46.64,122.33,1.17,17.39,9.84,40.89,26.01,70.49,1.62,2.96.77,4.43-2.53,4.42-13.87.94-31.56-16.29-53.07-51.67l-8.58-22.09c-8.42-26.83-5.28-57.26,9.42-91.3,20.05-35.35,55.04-71.31,104.99-107.85,49.95-36.55,98.72-67.7,146.34-93.46,47.61-25.76,73.64-38.79,78.11-39.1h.01ZM169.53,286.99c-.53-2.56-.81-4.96-.84-7.2-.04-2.24.4-4.57,1.3-6.99.9-2.42,1.57-4.77,2-7.04.43-2.27.22-4.56-.64-6.86s-2.11-4.16-3.74-5.59c-1.63-1.42-4.03-2.79-7.18-4.12-3.16-1.32-6.56-1.86-10.2-1.61-3.65.25-7.07,1.07-10.28,2.46-3.21,1.4-6.03,3.36-8.46,5.88-2.43,2.53-4.35,5.61-5.75,9.24-1.41,3.64-2.29,7.3-2.62,10.98-.34,3.69-.11,7.09.69,10.22s2.38,6.39,4.73,9.77c2.35,3.38,4.94,5.86,7.76,7.45,2.82,1.58,6.46,3.05,10.92,4.4,4.46,1.35,8.67,1.72,12.65,1.09,3.97-.62,6.8-1.58,8.48-2.87s2.98-3.04,3.9-5.22c.91-2.19,1.45-3.87,1.6-5.07.15-1.19-.39-2.33-1.65-3.43-1.26-1.09-2.15-2.92-2.67-5.49h0ZM400.03,551.59c18.64-14.25,40.65-22.22,66.03-23.94,5.87-.4,11.06-.45,15.57-.17,4.5.28,8.45,1.03,11.84,2.21,10.81,2.81,16.37,6.45,16.67,10.92.41,6.11-6.8,11.32-21.61,15.63-7.74.75-15.95,1.61-24.62,2.55-8.67.94-17.04,2.98-25.09,6.12-7.6,2.87-16.4,8.9-26.4,18.07-1.59.82-3.39,1.41-5.37,1.78-1.98.37-3.56.59-4.74.67-9.11-1.99-13.94-7.09-14.49-15.31-.4-5.88,3.67-12.06,12.21-18.53h0ZM486.14,310.96c11.48,9.14,15.37,24.82,11.67,47.03-11.39,51.54-39.25,78.91-83.57,83.55l-2.11-30.66c36.57-.34,52.75-24.69,48.55-73.05-2.21-22.28,6.27-31.24,25.46-26.87ZM616.63,407.34c5.46-6.51,12.15-10.56,20.08-12.16,7.92-1.6,18.57-2.56,28.59-2.67l1.17,31.62c-13,2.44-23.41,6.57-28.73,20.39-5.33,13.82-12.8,31.62-22.43,53.4s-39.01,46.37-88.17,73.78c-34.64,8.01-39.73-.98-15.28-26.95,19.08-18.29,35.3-33.26,48.68-44.9,13.38-11.65,23.76-27.46,31.15-47.44,7.38-19.98,15.7-35,24.94-45.07h0ZM619.32,203.15c-.53-2.56-.81-4.96-.84-7.2-.04-2.24.4-4.51,1.31-6.82.91-2.3,1.58-4.59,2.02-6.86.43-2.27.22-4.56-.64-6.87-.86-2.3-2.11-4.16-3.74-5.59-1.63-1.42-3.97-2.8-7.01-4.13-3.05-1.32-6.39-1.87-10.03-1.62-3.65.25-7.07,1.07-10.28,2.46-3.21,1.4-5.97,3.36-8.28,5.87-2.31,2.52-4.17,5.59-5.57,9.23-1.41,3.64-2.29,7.24-2.63,10.8-.35,3.57-.13,6.91.68,10.05.8,3.13,2.37,6.34,4.72,9.6,2.35,3.26,4.87,5.69,7.58,7.28,2.7,1.59,6.28,3.06,10.74,4.41,4.46,1.35,8.62,1.72,12.47,1.1,3.85-.61,6.62-1.56,8.31-2.86,1.68-1.29,2.98-3.04,3.9-5.22.91-2.19,1.45-3.82,1.62-4.89.16-1.07-.38-2.16-1.64-3.26-1.26-1.09-2.15-2.92-2.67-5.49h-.02ZM777.44,244.9l21.64-9.96c23.5-8.67,43-10.1,58.5-4.3,17.73,14.39,21.87,37.25,12.42,68.58-5.07,15.93-13.71,31.27-25.94,46.02l4,6.81c11.72,16.21,26.83,24.87,45.32,25.98l2.07,30.67c-9.61,1.12-19.96-.07-31.05-3.57-11.1-3.5-26.36-14.51-45.79-33.03l-30.52,20.12c16.28,31.25,1.9,36.94-43.12,17.08l-13.84,4.83-20.59,4.58c-16.6,2.54-32.05,4.41-46.37,5.61l-2.14-31.73c10.13-.21,19.13-1.65,26.98-4.3l9.71-3.14c-3.17-4.98-5.38-8.9-6.64-11.77-1.26-2.86-2.68-6.43-4.26-10.69-1.59-4.26-2.49-9.69-2.69-16.29-1.44-17.84,12.16-40.25,40.8-67.21,16.3-13.85,33.47-25.28,51.52-34.29h0ZM747.21,41.17c-.53-2.56-.81-4.96-.84-7.21-.03-2.24.4-4.51,1.31-6.82.91-2.3,1.58-4.59,2.02-6.86.43-2.27.22-4.56-.64-6.87-.86-2.3-2.11-4.16-3.74-5.59-1.63-1.42-3.97-2.8-7.01-4.13-3.04-1.33-6.39-1.87-10.03-1.63-3.65.25-7.07,1.07-10.28,2.46-3.22,1.4-5.97,3.36-8.28,5.87-2.31,2.52-4.17,5.59-5.58,9.23-1.41,3.64-2.29,7.24-2.63,10.8-.35,3.57-.13,6.91.68,10.05.8,3.13,2.38,6.34,4.72,9.6,2.35,3.27,4.87,5.69,7.57,7.28s6.28,3.06,10.75,4.41c4.46,1.35,8.62,1.72,12.47,1.1,3.85-.61,6.62-1.56,8.31-2.86,1.68-1.29,2.98-3.04,3.9-5.22.92-2.19,1.45-3.82,1.62-4.89.16-1.07-.38-2.16-1.64-3.25s-2.14-2.92-2.67-5.49v.02ZM724.58,338.07c1.05,15.51,9.38,25.34,25.01,29.48l6.35-.43c21.88-4.54,47.41-25.16,76.58-61.84,6.45-9.41,9.09-22.81,7.91-40.2l-3.81-3.99-3.93-.45c-22.8,1.54-48.37,14.6-76.69,39.18-21.47,17.74-31.94,30.49-31.42,38.24h0ZM964.5,277.25c11.52,6.3,15.41,21.98,11.67,47.03-11.39,51.54-39.25,79.63-83.56,84.27l-2.12-31.38c33.08-3.17,49.26-27.53,48.55-73.05,1.24-20.15,9.72-29.11,25.46-26.87ZM892.05,153.58c19.79-14.56,43.21-22.75,70.24-24.58,6.11-.41,11.53-.48,16.28-.21,4.74.27,8.92.99,12.54,2.16,11.54,3,17.45,6.73,17.76,11.2.43,6.35-7.21,10.4-22.91,12.17-8.21.79-16.89,1.67-26.03,2.64s-17.97,3.16-26.47,6.57c-8.07,2.91-17.45,9.09-28.14,18.55-1.6.82-3.15,1.4-4.66,1.73-1.52.34-2.97.55-4.38.65-10.81.73-16.5-3.13-17.07-11.6-.41-6.11,3.87-12.53,12.86-19.28h-.02Z"/></svg>